<?xml version="1.0" standalone="no"?>
<!DOCTYPE svg PUBLIC "-//W3C//DTD SVG 20010904//EN"
 "http://www.w3.org/TR/2001/REC-SVG-20010904/DTD/svg10.dtd">
<svg version="1.0" xmlns="http://www.w3.org/2000/svg"
 width="800.000000pt" height="800.000000pt" viewBox="0 0 800.000000 800.000000"
 preserveAspectRatio="xMidYMid meet">

<g transform="translate(0.000000,800.000000) scale(0.100000,-0.100000)"
fill="#000000" stroke="none">
<path d="M0 4000 l0 -4000 4000 0 4000 0 0 4000 0 4000 -4000 0 -4000 0 0
-4000z m2157 2935 c229 -43 427 -231 489 -465 22 -85 22 -234 -1 -319 l-16
-65 653 -653 654 -654 64 17 c89 24 255 24 335 0 167 -49 329 -183 398 -326
66 -137 84 -290 52 -430 -16 -68 -44 -140 -54 -140 -3 0 -103 97 -221 216
-228 229 -275 264 -355 264 -39 0 -117 -29 -128 -47 -3 -5 89 -51 204 -103
230 -102 248 -115 218 -168 -9 -17 -25 -28 -41 -30 -16 -2 -102 31 -229 87
-112 50 -210 91 -218 91 -21 0 -7 -93 23 -144 13 -22 51 -67 83 -98 56 -55 72
-63 581 -289 566 -251 564 -249 531 -307 -8 -16 -25 -28 -40 -30 -15 -2 -151
54 -354 144 -182 80 -350 155 -375 166 l-45 19 34 -35 c19 -20 33 -37 30 -39
-15 -11 -91 -38 -129 -46 -183 -37 -332 -11 -486 84 -121 76 -222 204 -265
337 l-24 74 -406 180 -407 181 -404 -404 c-294 -295 -417 -411 -453 -430 -71
-37 -179 -43 -256 -14 -72 27 -136 84 -174 152 -27 49 -30 62 -30 149 0 78 4
103 22 140 16 32 180 203 568 590 l545 545 132 -132 133 -132 225 -102 c124
-55 236 -105 250 -110 14 -6 -211 227 -500 516 l-526 526 -64 -17 c-135 -35
-320 -12 -460 59 -100 49 -216 169 -269 277 -79 161 -90 322 -35 489 l27 82
231 -229 c255 -253 278 -269 377 -260 138 14 223 173 159 299 -12 22 -117 134
-246 261 l-225 222 48 19 c117 46 238 57 370 32z m2531 -98 l113 -114 -102
-199 c-150 -292 -114 -253 -365 -383 l-219 -113 -285 -284 -285 -284 -113 113
c-61 62 -112 117 -112 122 0 5 124 134 277 287 l276 276 117 227 118 227 228
119 c126 65 231 119 234 119 3 0 56 -51 118 -113z m1845 -844 c96 -46 188
-136 235 -233 l37 -75 5 -921 5 -922 230 89 c127 49 236 89 244 89 38 0 65
-62 42 -98 -4 -7 -122 -57 -262 -111 l-254 -98 -5 -909 -5 -909 -32 -68 c-46
-96 -136 -188 -233 -235 l-75 -37 -327 -3 c-293 -3 -330 -1 -360 14 -27 14
-298 230 -298 237 0 2 25 52 55 112 64 127 108 258 130 381 28 161 16 409 -27
550 l-13 41 -143 -55 c-139 -54 -143 -56 -138 -81 3 -14 11 -62 18 -106 6 -44
13 -81 14 -83 1 -2 19 4 39 12 48 20 64 20 87 -1 21 -19 24 -66 4 -86 -8 -8
-41 -24 -73 -36 l-58 -22 -22 -109 c-22 -114 -78 -250 -143 -347 -46 -68 -184
-207 -254 -255 -81 -56 -226 -122 -316 -144 -60 -15 -111 -19 -250 -18 -164 0
-181 2 -260 28 -86 29 -170 68 -225 105 -28 19 -45 21 -215 21 l-186 0 -639
-246 c-352 -136 -650 -249 -663 -252 -47 -10 -84 65 -48 100 7 8 142 63 299
123 l287 110 -128 6 c-156 8 -240 27 -359 84 -122 58 -172 92 -271 189 -99 96
-150 167 -207 290 -65 139 -80 213 -80 396 0 183 15 257 80 396 57 123 108
194 207 290 99 97 149 131 273 190 140 67 252 87 440 81 128 -4 163 -9 235
-32 85 -27 169 -66 225 -104 29 -20 44 -21 375 -21 331 0 346 1 375 21 55 37
139 76 225 105 79 26 96 28 260 28 205 1 272 -12 417 -79 110 -52 171 -92 238
-156 l50 -48 145 56 c80 30 149 59 154 64 14 13 -156 176 -256 247 -48 34
-124 80 -168 102 l-80 40 0 733 c0 630 2 741 16 792 18 70 47 123 102 186 41
46 712 582 768 613 25 14 71 16 359 13 l330 -2 68 -32z m-4713 -690 l600 -268
-46 -46 -46 -46 -571 254 c-315 140 -582 261 -594 269 -42 27 -17 104 33 104
13 0 294 -120 624 -267z m233 -470 c59 -25 107 -49 107 -53 0 -3 -20 -25 -44
-49 l-43 -42 -99 48 c-78 38 -100 53 -102 71 -5 32 24 72 51 72 12 0 70 -21
130 -47z"/>
<path d="M2885 4580 c-44 -44 -77 -81 -74 -83 2 -2 159 -72 348 -156 237 -105
346 -149 351 -141 4 7 10 38 14 71 3 32 12 75 20 94 15 35 10 47 -22 51 -7 1
-122 51 -255 110 -133 59 -256 113 -273 120 -30 13 -31 12 -109 -66z"/>
<path d="M6083 5520 c-18 -10 -40 -34 -50 -52 -17 -31 -18 -80 -18 -798 0
-718 1 -767 18 -798 26 -48 72 -72 137 -72 65 0 111 24 137 72 17 31 18 80 18
798 0 718 -1 767 -18 798 -26 48 -72 72 -137 72 -37 0 -66 -6 -87 -20z"/>
<path d="M5329 3142 l-147 -56 28 -41 c15 -22 40 -65 55 -95 15 -30 28 -56 29
-57 3 -4 270 99 279 107 8 7 -58 148 -85 182 -12 15 -26 11 -159 -40z"/>
<path d="M2563 2960 c-49 -30 -65 -70 -71 -185 l-5 -102 -102 -5 c-156 -8
-205 -46 -205 -158 0 -112 49 -150 205 -158 l102 -5 5 -102 c8 -156 46 -205
158 -205 112 0 150 49 158 205 l5 102 102 5 c156 8 205 46 205 158 0 112 -49
150 -205 158 l-102 5 -5 102 c-8 156 -46 205 -158 205 -37 0 -66 -6 -87 -20z"/>
<path d="M4492 2800 c-66 -40 -89 -120 -58 -195 8 -19 19 -35 23 -35 4 0 64
22 133 49 84 33 126 54 128 66 6 27 -18 73 -55 105 -28 25 -42 30 -86 30 -34
0 -63 -7 -85 -20z"/>
<path d="M4174 2481 c-18 -11 -35 -24 -38 -30 -5 -8 20 0 125 42 8 3 -2 6 -21
6 -19 1 -49 -8 -66 -18z"/>
<path d="M6094 2481 c-123 -75 -85 -265 56 -279 65 -6 105 11 141 61 52 72 33
171 -43 217 -42 26 -113 26 -154 1z"/>
<path d="M4243 2357 c-76 -29 -133 -57 -133 -64 0 -7 15 -29 33 -49 26 -28 42
-37 77 -41 71 -8 110 7 148 57 29 37 33 49 30 93 -2 28 -7 51 -13 53 -5 1 -70
-21 -142 -49z"/>
</g>
</svg>
